<mxfile host="app.diagrams.net" modified="2024-04-19T14:10:27.147Z" agent="Mozilla/5.0 (Windows NT 10.0; Win64; x64) AppleWebKit/537.36 (KHTML, like Gecko) Chrome/123.0.0.0 Safari/537.36" version="24.2.5" etag="QlCnaUGr3H4IoZS0sn_S" type="github">
  <diagram name="Pagina-1" id="BTT9d2IUX7OKFlE0blVZ">
    <mxGraphModel>
      <root>
        <mxCell id="0" />
        <mxCell id="1" parent="0" />
      </root>
    </mxGraphModel>
  </diagram>
</mxfile>
